<svg width="792" height="800" viewBox="0 0 792 800" fill="none" xmlns="http://www.w3.org/2000/svg">
<circle cx="396" cy="395.127" r="395.127" fill="white"/>
<path d="M475.867 570.087C449.658 615.697 436.553 638.503 419.444 646.156C404.521 652.832 387.479 652.832 372.556 646.156C355.447 638.503 342.343 615.697 316.133 570.087L205.862 378.19C179.653 332.579 166.548 309.774 168.506 291.061C170.213 274.738 178.734 259.91 191.95 250.263C207.101 239.203 233.31 239.203 285.729 239.203L506.271 239.203C558.69 239.203 584.899 239.203 600.05 250.263C613.266 259.91 621.787 274.738 623.494 291.061C625.452 309.774 612.347 332.579 586.138 378.19L475.867 570.087Z" fill="black"/>
</svg>
