<svg width="791" height="791" viewBox="0 0 791 791" fill="none" xmlns="http://www.w3.org/2000/svg">
<circle cx="395.127" cy="395.127" r="395.127" fill="black"/>
<path d="M474.994 570.087C448.784 615.697 435.68 638.503 418.571 646.156C403.648 652.832 386.606 652.832 371.683 646.156C354.574 638.503 341.469 615.697 315.26 570.087L204.989 378.19C178.78 332.579 165.675 309.774 167.633 291.061C169.34 274.738 177.861 259.91 191.077 250.263C206.228 239.203 232.437 239.203 284.856 239.203L505.398 239.203C557.817 239.203 584.026 239.203 599.177 250.263C612.393 259.91 620.914 274.738 622.621 291.061C624.579 309.774 611.474 332.579 585.265 378.19L474.994 570.087Z" fill="white"/>
</svg>
